<?xml version="1.0" encoding="UTF-8"?>
<svg xmlns="http://www.w3.org/2000/svg" viewBox="-28 -28 527.2 214.2" width="527" height="214"><g transform="translate(-44.77,-21.45) scale(1.5544)"><line x1="37" y1="40" x2="37" y2="74" stroke="#800020" stroke-width="15" stroke-linecap="round"/><line x1="63" y1="40" x2="63" y2="74" stroke="#800020" stroke-width="15" stroke-linecap="round"/><circle cx="37" cy="22" r="8.2" fill="#800020"/><circle cx="63" cy="22" r="8.2" fill="#800020"/><path d="M37 72.5 Q50 91 63 72.5" stroke="#800020" stroke-width="4.5" fill="none" stroke-linecap="round"/></g><g fill="#800020"><path d="M449 1490 721 1019H733L1006 1490H1410L960 744L1425 0H1011L733 475H721L441 0H32L493 744L43 1490Z" transform="translate(106.71,103.68) scale(0.05859,-0.05859)"/><path d="M714 1118V855H10V1118ZM157 1384H512V352Q512 307 534.0 284.5Q556 262 603 262Q621 262 644.5 266.0Q668 270 681 274L734 16Q674 -1 622.5 -8.5Q571 -16 521 -16Q343 -16 250.0 68.5Q157 153 157 312Z" transform="translate(189.96,103.68) scale(0.05859,-0.05859)"/><path d="M84 0V1118H440V0ZM261 1246Q186 1246 132.0 1296.0Q78 1346 78 1417Q78 1488 132.0 1537.5Q186 1587 261 1587Q337 1587 390.5 1537.5Q444 1488 444 1417Q444 1346 390.5 1296.0Q337 1246 261 1246Z" transform="translate(232.20,103.68) scale(0.05859,-0.05859)"/><path d="M84 0V1118H440V0ZM261 1246Q186 1246 132.0 1296.0Q78 1346 78 1417Q78 1488 132.0 1537.5Q186 1587 261 1587Q337 1587 390.5 1537.5Q444 1488 444 1417Q444 1346 390.5 1296.0Q337 1246 261 1246Z" transform="translate(260.90,103.68) scale(0.05859,-0.05859)"/><path d="M714 1118V855H10V1118ZM157 1384H512V352Q512 307 534.0 284.5Q556 262 603 262Q621 262 644.5 266.0Q668 270 681 274L734 16Q674 -1 622.5 -8.5Q571 -16 521 -16Q343 -16 250.0 68.5Q157 153 157 312Z" transform="translate(289.61,103.68) scale(0.05859,-0.05859)"/><path d="M605 -21Q428 -21 302.0 52.0Q176 125 109.0 254.5Q42 384 42 555Q42 727 109.0 856.5Q176 986 302.5 1059.0Q429 1132 605 1132Q760 1132 875.0 1075.5Q990 1019 1055.0 917.5Q1120 816 1124 678H792Q785 735 761.5 776.0Q738 817 699.5 839.0Q661 861 610 861Q548 861 501.5 826.5Q455 792 429.5 724.5Q404 657 404 558Q404 459 429.5 390.5Q455 322 501.0 286.0Q547 250 610 250Q683 250 732.0 299.5Q781 349 792 438H1124Q1119 300 1055.0 196.5Q991 93 877.0 36.0Q763 -21 605 -21Z" transform="translate(331.84,103.68) scale(0.05859,-0.05859)"/><path d="M440 637V0H84V1490H427V912H440Q478 1015 564.0 1073.5Q650 1132 776 1132Q893 1132 980.5 1079.5Q1068 1027 1116.0 933.0Q1164 839 1164 712V0H808V642Q808 735 761.0 787.5Q714 840 628 840Q572 840 529.5 816.0Q487 792 463.5 746.5Q440 701 440 637Z" transform="translate(397.99,103.68) scale(0.05859,-0.05859)"/></g><g fill="#9A7A80"><path d="M120 0V1490H1045V1297H345V814H978V622H345V0Z" transform="translate(107.71,151.68) scale(0.01318,-0.01318)"/><path d="M428 -24Q322 -24 236.0 15.5Q150 55 100.0 131.0Q50 207 50 316Q50 411 86.5 471.5Q123 532 185.0 568.0Q247 604 323.0 622.0Q399 640 479 650Q580 661 642.0 669.0Q704 677 732.5 694.5Q761 712 761 751V756Q761 851 707.5 903.0Q654 955 549 955Q440 955 376.5 907.5Q313 860 289 800L84 847Q121 949 191.5 1011.5Q262 1074 353.5 1103.0Q445 1132 545 1132Q612 1132 687.0 1116.5Q762 1101 828.5 1059.5Q895 1018 937.0 941.0Q979 864 979 742V0H766V153H758Q738 112 695.5 71.0Q653 30 587.0 3.0Q521 -24 428 -24ZM475 150Q566 150 630.0 185.5Q694 221 728.0 279.0Q762 337 762 402V547Q750 536 717.0 526.0Q684 516 642.0 509.0Q600 502 560.0 496.5Q520 491 493 488Q430 479 378.0 460.5Q326 442 294.5 406.5Q263 371 263 313Q263 232 323.0 191.0Q383 150 475 150Z" transform="translate(123.59,151.68) scale(0.01318,-0.01318)"/><path d="M940 844 743 810Q724 866 672.5 913.0Q621 960 519 960Q427 960 365.5 918.5Q304 877 304 813Q304 757 345.5 722.0Q387 687 478 666L657 626Q810 591 886.0 516.0Q962 441 962 324Q962 223 904.0 144.5Q846 66 743.0 21.5Q640 -23 505 -23Q317 -23 199.0 58.0Q81 139 54 286L263 318Q283 236 344.5 194.0Q406 152 504 152Q610 152 674.5 197.0Q739 242 739 306Q739 412 581 449L392 491Q235 527 160.5 604.5Q86 682 86 800Q86 899 141.5 974.0Q197 1049 294.5 1090.5Q392 1132 517 1132Q699 1132 802.5 1053.0Q906 974 940 844Z" transform="translate(139.07,151.68) scale(0.01318,-0.01318)"/><path d="M320 663V0H104V1490H317V934H332Q371 1025 451.5 1078.5Q532 1132 662 1132Q777 1132 863.0 1085.0Q949 1038 997.5 944.0Q1046 850 1046 710V0H828V684Q828 808 764.5 876.0Q701 944 588 944Q510 944 450.0 910.5Q390 877 355.0 815.0Q320 753 320 663Z" transform="translate(153.59,151.68) scale(0.01318,-0.01318)"/><path d="M104 0V1118H320V0ZM213 1290Q156 1290 116.0 1328.0Q76 1366 76 1419Q76 1473 116.0 1511.0Q156 1549 213 1549Q269 1549 309.5 1511.0Q350 1473 350 1419Q350 1366 309.5 1328.0Q269 1290 213 1290Z" transform="translate(169.93,151.68) scale(0.01318,-0.01318)"/><path d="M573 -23Q416 -23 298.5 49.0Q181 121 116.5 251.0Q52 381 52 553Q52 727 116.5 857.5Q181 988 298.5 1060.0Q416 1132 573 1132Q731 1132 848.0 1060.0Q965 988 1030.0 857.5Q1095 727 1095 553Q1095 381 1030.0 251.0Q965 121 848.0 49.0Q731 -23 573 -23ZM573 160Q676 160 743.0 214.0Q810 268 842.5 357.5Q875 447 875 553Q875 661 842.5 751.0Q810 841 743.0 895.0Q676 949 573 949Q471 949 404.5 895.0Q338 841 305.0 751.0Q272 661 272 553Q272 447 305.0 357.5Q338 268 404.5 214.0Q471 160 573 160Z" transform="translate(176.72,151.68) scale(0.01318,-0.01318)"/><path d="M320 663V0H104V1118H314V934H329Q367 1025 448.0 1078.5Q529 1132 656 1132Q770 1132 855.5 1084.5Q941 1037 988.5 943.0Q1036 849 1036 710V0H820V684Q820 805 756.0 874.5Q692 944 582 944Q507 944 447.5 910.5Q388 877 354.0 815.0Q320 753 320 663Z" transform="translate(193.05,151.68) scale(0.01318,-0.01318)"/><path d="M82 -369 170 214H404L239 -369Z" transform="translate(209.28,151.68) scale(0.01318,-0.01318)"/><path d="M104 0V1118H320V0ZM213 1290Q156 1290 116.0 1328.0Q76 1366 76 1419Q76 1473 116.0 1511.0Q156 1549 213 1549Q269 1549 309.5 1511.0Q350 1473 350 1419Q350 1366 309.5 1328.0Q269 1290 213 1290Z" transform="translate(225.08,151.68) scale(0.01318,-0.01318)"/><path d="M320 663V0H104V1118H314V934H329Q367 1025 448.0 1078.5Q529 1132 656 1132Q770 1132 855.5 1084.5Q941 1037 988.5 943.0Q1036 849 1036 710V0H820V684Q820 805 756.0 874.5Q692 944 582 944Q507 944 447.5 910.5Q388 877 354.0 815.0Q320 753 320 663Z" transform="translate(231.87,151.68) scale(0.01318,-0.01318)"/><path d="M570 -442Q370 -442 255.0 -367.0Q140 -292 96 -189L282 -112Q302 -144 335.5 -180.0Q369 -216 426.0 -241.0Q483 -266 573 -266Q696 -266 777.0 -206.5Q858 -147 858 -16V203H843Q825 168 788.0 124.5Q751 81 687.0 49.0Q623 17 520 17Q388 17 282.5 79.5Q177 142 114.5 263.5Q52 385 52 563Q52 741 113.5 868.5Q175 996 281.0 1064.0Q387 1132 522 1132Q626 1132 690.5 1097.5Q755 1063 791.0 1017.0Q827 971 847 936H863V1118H1074V-25Q1074 -169 1007.5 -261.0Q941 -353 827.0 -397.5Q713 -442 570 -442ZM568 198Q709 198 784.5 295.5Q860 393 860 566Q860 679 827.0 764.5Q794 850 729.0 898.5Q664 947 568 947Q470 947 404.5 896.5Q339 846 306.0 759.5Q273 673 273 566Q273 457 306.0 373.5Q339 290 405.5 244.0Q472 198 568 198Z" transform="translate(255.31,151.68) scale(0.01318,-0.01318)"/><path d="M573 -23Q416 -23 298.5 49.0Q181 121 116.5 251.0Q52 381 52 553Q52 727 116.5 857.5Q181 988 298.5 1060.0Q416 1132 573 1132Q731 1132 848.0 1060.0Q965 988 1030.0 857.5Q1095 727 1095 553Q1095 381 1030.0 251.0Q965 121 848.0 49.0Q731 -23 573 -23ZM573 160Q676 160 743.0 214.0Q810 268 842.5 357.5Q875 447 875 553Q875 661 842.5 751.0Q810 841 743.0 895.0Q676 949 573 949Q471 949 404.5 895.0Q338 841 305.0 751.0Q272 661 272 553Q272 447 305.0 357.5Q338 268 404.5 214.0Q471 160 573 160Z" transform="translate(272.03,151.68) scale(0.01318,-0.01318)"/><path d="M573 -23Q416 -23 298.5 49.0Q181 121 116.5 251.0Q52 381 52 553Q52 727 116.5 857.5Q181 988 298.5 1060.0Q416 1132 573 1132Q731 1132 848.0 1060.0Q965 988 1030.0 857.5Q1095 727 1095 553Q1095 381 1030.0 251.0Q965 121 848.0 49.0Q731 -23 573 -23ZM573 160Q676 160 743.0 214.0Q810 268 842.5 357.5Q875 447 875 553Q875 661 842.5 751.0Q810 841 743.0 895.0Q676 949 573 949Q471 949 404.5 895.0Q338 841 305.0 751.0Q272 661 272 553Q272 447 305.0 357.5Q338 268 404.5 214.0Q471 160 573 160Z" transform="translate(288.35,151.68) scale(0.01318,-0.01318)"/><path d="M520 -22Q384 -22 278.0 47.5Q172 117 112.0 246.5Q52 376 52 556Q52 738 113.0 867.0Q174 996 280.0 1064.0Q386 1132 520 1132Q625 1132 688.5 1097.5Q752 1063 787.5 1017.0Q823 971 842 936H855V1490H1071V0H860V174H842Q823 139 786.0 93.0Q749 47 685.5 12.5Q622 -22 520 -22ZM567 163Q661 163 726.0 213.0Q791 263 824.5 352.0Q858 441 858 558Q858 675 825.0 762.5Q792 850 727.0 898.5Q662 947 567 947Q469 947 404.0 896.0Q339 845 306.0 757.0Q273 669 273 558Q273 446 306.0 356.5Q339 267 404.5 215.0Q470 163 567 163Z" transform="translate(304.67,151.68) scale(0.01318,-0.01318)"/><path d="M573 -23Q416 -23 298.5 49.0Q181 121 116.5 251.0Q52 381 52 553Q52 727 116.5 857.5Q181 988 298.5 1060.0Q416 1132 573 1132Q731 1132 848.0 1060.0Q965 988 1030.0 857.5Q1095 727 1095 553Q1095 381 1030.0 251.0Q965 121 848.0 49.0Q731 -23 573 -23ZM573 160Q676 160 743.0 214.0Q810 268 842.5 357.5Q875 447 875 553Q875 661 842.5 751.0Q810 841 743.0 895.0Q676 949 573 949Q471 949 404.5 895.0Q338 841 305.0 751.0Q272 661 272 553Q272 447 305.0 357.5Q338 268 404.5 214.0Q471 160 573 160Z" transform="translate(328.58,151.68) scale(0.01318,-0.01318)"/><path d="M104 0V1118H313V939H325Q356 1029 433.5 1081.5Q511 1134 609 1134Q629 1134 656.5 1132.5Q684 1131 701 1129V921Q688 925 654.5 929.0Q621 933 587 933Q510 933 449.5 900.5Q389 868 354.5 811.5Q320 755 320 681V0Z" transform="translate(344.90,151.68) scale(0.01318,-0.01318)"/><path d="M520 -22Q384 -22 278.0 47.5Q172 117 112.0 246.5Q52 376 52 556Q52 738 113.0 867.0Q174 996 280.0 1064.0Q386 1132 520 1132Q625 1132 688.5 1097.5Q752 1063 787.5 1017.0Q823 971 842 936H855V1490H1071V0H860V174H842Q823 139 786.0 93.0Q749 47 685.5 12.5Q622 -22 520 -22ZM567 163Q661 163 726.0 213.0Q791 263 824.5 352.0Q858 441 858 558Q858 675 825.0 762.5Q792 850 727.0 898.5Q662 947 567 947Q469 947 404.0 896.0Q339 845 306.0 757.0Q273 669 273 558Q273 446 306.0 356.5Q339 267 404.5 215.0Q470 163 567 163Z" transform="translate(355.34,151.68) scale(0.01318,-0.01318)"/><path d="M585 -23Q421 -23 301.0 48.0Q181 119 116.5 248.5Q52 378 52 551Q52 723 115.5 854.0Q179 985 294.5 1058.5Q410 1132 566 1132Q661 1132 750.0 1101.0Q839 1070 910.0 1003.0Q981 936 1022.5 829.0Q1064 722 1064 571V493H175V656H952L851 602Q851 705 819.0 784.0Q787 863 723.5 907.5Q660 952 566 952Q472 952 405.5 907.0Q339 862 304.0 788.0Q269 714 269 626V515Q269 400 309.0 320.0Q349 240 420.5 198.0Q492 156 587 156Q649 156 699.5 174.0Q750 192 787.0 228.0Q824 264 843 317L1049 278Q1024 188 961.0 120.0Q898 52 802.5 14.5Q707 -23 585 -23Z" transform="translate(372.03,151.68) scale(0.01318,-0.01318)"/><path d="M104 0V1118H313V939H325Q356 1029 433.5 1081.5Q511 1134 609 1134Q629 1134 656.5 1132.5Q684 1131 701 1129V921Q688 925 654.5 929.0Q621 933 587 933Q510 933 449.5 900.5Q389 868 354.5 811.5Q320 755 320 681V0Z" transform="translate(387.89,151.68) scale(0.01318,-0.01318)"/><path d="M266 -14Q205 -14 162.5 28.0Q120 70 120 131Q120 192 162.5 234.0Q205 276 266 276Q327 276 369.5 234.0Q412 192 412 131Q412 70 369.5 28.0Q327 -14 266 -14Z" transform="translate(398.33,151.68) scale(0.01318,-0.01318)"/></g></svg>